<svg id="Layer_1" data-name="Layer 1" xmlns="http://www.w3.org/2000/svg" viewBox="0 0 1717.49 296.65"><defs><style>.cls-1,.cls-2{fill:#fff;}.cls-1{fill-rule:evenodd;}</style></defs><path class="cls-1" d="M437.9,294a148.5,148.5,0,0,1-136.8,148.1,241.6,241.6,0,0,1-11.48-73.86c0-20.15-.06-16.82-.06-37a92.65,92.65,0,0,0,37.09,74.08,149.11,149.11,0,0,0,44.9-49.21c35.94-63.68-26.46-152.13-82-192.13-55.42,39.86-117.92,128.4-82,192.1A148.8,148.8,0,0,0,277,419.07l-4,22.53A148.43,148.43,0,0,1,141.25,294c0-82,66.4-148.55,148.31-148.55S437.9,212,437.9,294Z" transform="translate(-141.25 -145.46)"/><path class="cls-2" d="M549.05,295.94a72.71,72.71,0,1,1,72.57,72.85c-18.92,0-34.17-7.9-44.62-20.33V423h-28Zm72.57,46c25.7,0,45.18-20.33,45.18-46s-19.2-46-45.18-46c-25.7,0-45.18,20.33-45.18,46S596.21,342,621.62,342Zm159.83,26.82A72.86,72.86,0,1,1,854,295.94v70.59H826.35v-22.3C819.57,358.06,801.5,368.79,781.45,368.79Zm.28-26.82c25.7,0,44.9-20.33,44.9-46s-18.92-46-44.9-46-45.46,20.33-45.46,46S756,342,781.73,342Zm154.18,81c-29.08,0-50.54-17.79-60.14-43.77h31.06c5.93,9.88,15,16.94,29.08,16.94,21.75,0,34.17-14.4,34.17-33.32v-7.62c-7.9,8.47-20.33,13.55-34.17,13.55-36.14,0-62.12-21.74-62.12-69.18V225.34h27.67v74.27c0,28.8,12.43,42.36,34.45,42.36,21.75,0,34.45-13.28,34.45-40.67v-76H998V359.47C998,395.62,972.06,423,935.91,423ZM1174,223.08c35.3,0,61.28,21.75,61.28,69.19v74.26h-27.67V292.27c0-28.81-12.15-42.36-33.61-42.36-21.18,0-33.6,13.55-33.6,42.36v74.26h-27.67V292.27c0-28.81-12.15-42.36-33.61-42.36-21.18,0-33.6,13.55-33.6,42.36v74.26h-27.67V292.27c0-47.44,26-69.19,61.27-69.19,20.33,0,38.12,8.47,47.44,26.26C1135.84,231.55,1153.63,223.08,1174,223.08Zm149.67,0a72.86,72.86,0,1,1-72.86,72.86A72.67,72.67,0,0,1,1323.63,223.08Zm.28,26.83c-26,0-45.46,20.33-45.46,46s19.76,46,45.46,46,44.9-20.33,44.9-46S1349.89,249.91,1323.91,249.91Zm212.35,116.62h-27.67V292.27c0-28.81-12.43-42.36-34.45-42.36s-34.45,13.55-34.45,42.36v74.26H1412V292.27c0-47.44,26-69.19,62.13-69.19s62.12,21.75,62.12,69.19ZM1624.65,423A72.6,72.6,0,0,1,1558,379.24h33.32c8.47,10.73,19.76,16.94,33.32,16.94,24.28,0,44.62-15.81,44.62-39.53v-6.49a62.22,62.22,0,0,1-44.62,18.63,72.86,72.86,0,1,1,72.85-72.85v54.22A72.66,72.66,0,0,1,1624.65,423Zm.28-81c25.7,0,44.9-20.33,44.9-46s-18.92-46-44.9-46-45.46,20.33-45.46,46S1599.23,342,1624.93,342Zm161-118.89A72.86,72.86,0,1,1,1713,295.94,72.68,72.68,0,0,1,1785.89,223.08Zm.28,26.83c-26,0-45.46,20.33-45.46,46s19.77,46,45.46,46,44.9-20.33,44.9-46S1812.15,249.91,1786.17,249.91Z" transform="translate(-141.25 -145.46)"/></svg>